<svg width="190" height="22" viewBox="0 0 190 22" fill="none" xmlns="http://www.w3.org/2000/svg">
<path d="M8.12482 2.33599H12.0722L18.032 19.2904L19.5284 19.5409V21.0435H11.9174V19.5409L13.8524 19.2904L12.8462 16.0348H6.16402L5.15782 19.3155L7.24762 19.5409V21.0435H0.668622L0.642822 19.5409L2.19082 19.2904L8.12482 2.33599ZM9.90502 6.56834L9.44062 4.61494L8.95042 6.59338L6.65422 14.2817H12.3302L9.90502 6.56834Z" fill="#2A2A2A"/>
<path d="M21.8027 9.49842L20.1515 9.04764V7.31964L24.4342 6.79373H24.5117L25.1567 7.2946V8.27129L25.1308 8.87234C25.7328 8.32138 26.5155 7.84555 27.4787 7.44486C28.4419 7.04416 29.4137 6.84381 30.3941 6.84381C31.4433 6.84381 32.2603 7.03581 32.8451 7.41981C33.4471 7.78712 33.8771 8.37147 34.1351 9.17286C34.3931 9.97425 34.5221 11.0595 34.5221 12.4285V19.3405L36.0959 19.5409V21.0435H29.4395V19.5409L30.8327 19.3405V12.4285C30.8327 11.5603 30.7725 10.8842 30.6521 10.4C30.5317 9.89912 30.3081 9.54016 29.9813 9.32312C29.6716 9.08938 29.2245 8.97251 28.6397 8.97251C27.6593 8.97251 26.6101 9.38155 25.4921 10.1996V19.3155L27.0401 19.5409V21.0435H20.3063V19.5409L21.8027 19.3155V9.49842Z" fill="#2A2A2A"/>
<path d="M43.3112 21.3189C42.2448 21.3189 41.2902 21.0769 40.4474 20.5927C39.6046 20.0918 38.9338 19.3238 38.435 18.2887C37.9362 17.2536 37.6868 15.9596 37.6868 14.4069C37.6868 13.0045 37.9792 11.7273 38.564 10.5753C39.166 9.4066 40.0432 8.47999 41.1956 7.79547C42.348 7.11094 43.7326 6.76868 45.3494 6.76868C46.003 6.76868 46.6222 6.83546 47.207 6.96903V2.73668L44.6786 2.38607V1.00868L49.9934 0.507812H50.0708L50.7932 1.03373V19.5158H52.1864V20.9433C50.948 21.1937 49.9246 21.3189 49.1162 21.3189C48.5658 21.3189 48.1702 21.2271 47.9294 21.0435C47.7058 20.8765 47.594 20.5343 47.594 20.0167V19.3155C47.1468 19.8998 46.5362 20.384 45.7622 20.768C44.9882 21.1353 44.1712 21.3189 43.3112 21.3189ZM44.6528 19.2403C45.2204 19.2403 45.7192 19.1318 46.1492 18.9148C46.5964 18.681 46.949 18.4056 47.207 18.0883V8.97251C47.0866 8.80555 46.8286 8.66364 46.433 8.54677C46.0546 8.4299 45.6418 8.37147 45.1946 8.37147C44.0938 8.37147 43.208 8.83894 42.5372 9.7739C41.8836 10.6922 41.5568 12.1697 41.5568 14.2066C41.5568 15.9096 41.8406 17.1784 42.4082 18.0132C42.9758 18.8313 43.724 19.2403 44.6528 19.2403Z" fill="#2A2A2A"/>
<path d="M60.5708 21.3189C58.3004 21.3189 56.6062 20.6762 55.4882 19.3906C54.3874 18.0883 53.837 16.3186 53.837 14.0814C53.837 12.5788 54.1208 11.2765 54.6884 10.1746C55.2732 9.07268 56.0902 8.22955 57.1394 7.64521C58.1886 7.06086 59.4012 6.76868 60.7772 6.76868C62.4972 6.76868 63.8216 7.21112 64.7504 8.09599C65.6792 8.96416 66.1608 10.208 66.1952 11.8275C66.1952 12.9294 66.1264 13.7475 65.9888 14.2817H57.6038C57.6726 15.801 58.0424 16.9864 58.7132 17.8379C59.384 18.6727 60.3386 19.0901 61.577 19.0901C62.2478 19.0901 62.9358 18.9816 63.641 18.7645C64.3634 18.5475 64.931 18.2887 65.3438 17.9882L65.9888 19.3656C65.5244 19.8497 64.7676 20.3005 63.7184 20.7179C62.6864 21.1186 61.6372 21.3189 60.5708 21.3189ZM62.5832 12.7791C62.6176 12.3116 62.6348 11.9527 62.6348 11.7022C62.6348 9.48173 61.8694 8.37147 60.3386 8.37147C59.4958 8.37147 58.8422 8.69703 58.3778 9.34816C57.9134 9.99929 57.6554 11.1429 57.6038 12.7791H62.5832Z" fill="#2A2A2A"/>
<path d="M68.2541 19.5659L69.9569 19.3656V9.49842L68.3057 9.04764V7.31964L72.3047 6.79373H72.3821L73.0271 7.2946V7.84555L72.9497 9.87408H73.0271C73.1475 9.54016 73.4313 9.13112 73.8785 8.64694C74.3257 8.14607 74.8847 7.71199 75.5555 7.34468C76.2435 6.96068 76.9831 6.76868 77.7743 6.76868C78.1527 6.76868 78.4795 6.81877 78.7547 6.91894V10.6755C78.2387 10.3249 77.6109 10.1496 76.8713 10.1496C75.6157 10.1496 74.5235 10.4751 73.5947 11.1262V19.3405L76.5875 19.5659V21.0435H68.2541V19.5659Z" fill="#2A2A2A"/>
<path d="M83.2621 18.9899C83.3997 19.1903 83.7093 19.3822 84.1909 19.5659C84.6897 19.7329 85.1885 19.8163 85.6873 19.8163C86.4957 19.8163 87.0977 19.6577 87.4933 19.3405C87.9061 19.0066 88.1125 18.5725 88.1125 18.0383C88.1125 17.4873 87.8631 17.0449 87.3643 16.7109C86.8655 16.3603 86.0227 15.9346 84.8359 15.4337L84.1135 15.1332C82.9267 14.649 82.0409 14.0647 81.4561 13.3802C80.8713 12.6956 80.5789 11.8108 80.5789 10.7256C80.5789 9.97425 80.8111 9.30642 81.2755 8.72208C81.7399 8.12103 82.3935 7.65355 83.2363 7.31964C84.0791 6.98573 85.0509 6.81877 86.1517 6.81877C86.9601 6.81877 87.6481 6.86886 88.2157 6.96903C88.8005 7.0692 89.4111 7.20277 90.0475 7.36973C90.3915 7.4866 90.6495 7.55338 90.8215 7.57007V10.8508H88.7833L88.1899 8.94747C88.0867 8.78051 87.8545 8.63025 87.4933 8.49668C87.1321 8.36312 86.7193 8.29634 86.2549 8.29634C85.5497 8.29634 84.9821 8.4466 84.5521 8.74712C84.1393 9.03094 83.9329 9.43164 83.9329 9.94921C83.9329 10.4167 84.0791 10.809 84.3715 11.1262C84.6639 11.4268 84.9821 11.6605 85.3261 11.8275C85.6701 11.9944 86.3065 12.2699 87.2353 12.6539C88.1641 13.0379 88.9295 13.4052 89.5315 13.7558C90.1507 14.1064 90.6581 14.5656 91.0537 15.1332C91.4665 15.6842 91.6729 16.3603 91.6729 17.1617C91.6729 18.3972 91.1741 19.3989 90.1765 20.1669C89.1789 20.9349 87.7427 21.3189 85.8679 21.3189C84.9907 21.3189 84.1995 21.2438 83.4943 21.0936C82.8063 20.9433 82.0065 20.7429 81.0949 20.4925L80.5273 20.3172V17.0115H82.6687L83.2621 18.9899Z" fill="#2A2A2A"/>
<path d="M93.777 14.1064C93.777 12.537 94.0952 11.2014 94.7316 10.0995C95.3852 8.99755 96.2538 8.17112 97.3374 7.62016C98.421 7.05251 99.5992 6.76868 100.872 6.76868C103.039 6.76868 104.708 7.41981 105.877 8.72208C107.064 10.0076 107.657 11.7607 107.657 13.9812C107.657 15.5673 107.331 16.9196 106.677 18.0383C106.041 19.1402 105.181 19.9666 104.097 20.5176C103.031 21.0518 101.852 21.3189 100.562 21.3189C98.4124 21.3189 96.744 20.6762 95.5572 19.3906C94.3704 18.0883 93.777 16.3269 93.777 14.1064ZM100.769 19.6911C102.712 19.6911 103.684 17.8713 103.684 14.2316C103.684 12.3283 103.452 10.8842 102.988 9.89912C102.523 8.89738 101.766 8.39651 100.717 8.39651C98.722 8.39651 97.7244 10.2163 97.7244 13.856C97.7244 15.7593 97.9652 17.2118 98.4468 18.2136C98.9456 19.1986 99.7196 19.6911 100.769 19.6911Z" fill="#2A2A2A"/>
<path d="M111.448 9.49842L109.796 9.04764V7.31964L114.079 6.79373H114.157L114.802 7.2946V8.27129L114.776 8.87234C115.378 8.32138 116.16 7.84555 117.124 7.44486C118.087 7.04416 119.059 6.84381 120.039 6.84381C121.088 6.84381 121.905 7.03581 122.49 7.41981C123.092 7.78712 123.522 8.37147 123.78 9.17286C124.038 9.97425 124.167 11.0595 124.167 12.4285V19.3405L125.741 19.5409V21.0435H119.084V19.5409L120.478 19.3405V12.4285C120.478 11.5603 120.417 10.8842 120.297 10.4C120.177 9.89912 119.953 9.54016 119.626 9.32312C119.317 9.08938 118.869 8.97251 118.285 8.97251C117.304 8.97251 116.255 9.38155 115.137 10.1996V19.3155L116.685 19.5409V21.0435H109.951V19.5409L111.448 19.3155V9.49842Z" fill="#2A2A2A"/>
<path d="M135.596 4.31442L133.661 3.98886V2.43616H137.556C137.918 2.43616 138.477 2.41946 139.233 2.38607C140.231 2.31929 141.134 2.2859 141.942 2.2859C143.731 2.2859 145.142 2.50294 146.174 2.93703C147.223 3.35442 147.962 3.96381 148.392 4.7652C148.84 5.5499 149.063 6.55164 149.063 7.77042C149.063 9.87407 148.384 11.5103 147.025 12.6789C145.683 13.8476 143.817 14.432 141.426 14.432C140.48 14.432 139.801 14.4069 139.388 14.3569V19.2904L142.845 19.5409V21.0435H133.557V19.5409L135.596 19.2904V4.31442ZM139.362 12.7541C139.758 12.8376 140.429 12.8793 141.375 12.8793C142.527 12.8793 143.447 12.4953 144.135 11.7273C144.841 10.9426 145.193 9.64868 145.193 7.84555C145.193 6.44312 144.875 5.42468 144.239 4.79025C143.619 4.13912 142.665 3.81355 141.375 3.81355C140.893 3.81355 140.394 3.84694 139.878 3.91373C139.638 3.94712 139.466 3.96381 139.362 3.96381V12.7541Z" fill="#2A2A2A"/>
<path d="M150.744 14.1064C150.744 12.537 151.062 11.2014 151.698 10.0995C152.352 8.99755 153.22 8.17112 154.304 7.62016C155.388 7.05251 156.566 6.76868 157.839 6.76868C160.006 6.76868 161.674 7.41981 162.844 8.72208C164.031 10.0076 164.624 11.7607 164.624 13.9812C164.624 15.5673 164.297 16.9196 163.644 18.0383C163.007 19.1402 162.147 19.9666 161.064 20.5176C159.997 21.0518 158.819 21.3189 157.529 21.3189C155.379 21.3189 153.711 20.6762 152.524 19.3906C151.337 18.0883 150.744 16.3269 150.744 14.1064ZM157.735 19.6911C159.679 19.6911 160.651 17.8713 160.651 14.2316C160.651 12.3283 160.419 10.8842 159.954 9.89912C159.49 8.89738 158.733 8.39651 157.684 8.39651C155.689 8.39651 154.691 10.2163 154.691 13.856C154.691 15.7593 154.932 17.2118 155.413 18.2136C155.912 19.1986 156.686 19.6911 157.735 19.6911Z" fill="#2A2A2A"/>
<path d="M169.833 18.9899C169.971 19.1903 170.28 19.3822 170.762 19.5659C171.261 19.7329 171.76 19.8163 172.258 19.8163C173.067 19.8163 173.669 19.6577 174.064 19.3405C174.477 19.0066 174.684 18.5725 174.684 18.0383C174.684 17.4873 174.434 17.0449 173.935 16.7109C173.437 16.3603 172.594 15.9346 171.407 15.4337L170.685 15.1332C169.498 14.649 168.612 14.0647 168.027 13.3802C167.442 12.6956 167.15 11.8108 167.15 10.7256C167.15 9.97425 167.382 9.30642 167.847 8.72208C168.311 8.12103 168.965 7.65355 169.807 7.31964C170.65 6.98573 171.622 6.81877 172.723 6.81877C173.531 6.81877 174.219 6.86886 174.787 6.96903C175.372 7.0692 175.982 7.20277 176.619 7.36973C176.963 7.4866 177.221 7.55338 177.393 7.57007V10.8508H175.354L174.761 8.94747C174.658 8.78051 174.426 8.63025 174.064 8.49668C173.703 8.36312 173.29 8.29634 172.826 8.29634C172.121 8.29634 171.553 8.4466 171.123 8.74712C170.71 9.03094 170.504 9.43164 170.504 9.94921C170.504 10.4167 170.65 10.809 170.943 11.1262C171.235 11.4268 171.553 11.6605 171.897 11.8275C172.241 11.9944 172.878 12.2699 173.806 12.6539C174.735 13.0379 175.501 13.4052 176.103 13.7558C176.722 14.1064 177.229 14.5656 177.625 15.1332C178.038 15.6842 178.244 16.3603 178.244 17.1617C178.244 18.3972 177.745 19.3989 176.748 20.1669C175.75 20.9349 174.314 21.3189 172.439 21.3189C171.562 21.3189 170.771 21.2438 170.065 21.0936C169.377 20.9433 168.578 20.7429 167.666 20.4925L167.098 20.3172V17.0115H169.24L169.833 18.9899Z" fill="#2A2A2A"/>
<path d="M184.682 21.2689C183.599 21.2689 182.799 21.0268 182.283 20.5426C181.767 20.0584 181.509 19.2904 181.509 18.2386V9.04764H179.832V7.74538C179.97 7.69529 180.219 7.61181 180.58 7.49495C180.941 7.36138 181.217 7.25286 181.406 7.16938C181.698 6.95234 181.948 6.57668 182.154 6.04242C182.309 5.69181 182.593 4.82364 183.005 3.4379H185.069L185.173 7.11929H189.12V9.04764H185.198V16.0849C185.198 17.0198 185.224 17.6793 185.276 18.0633C185.327 18.4473 185.439 18.6977 185.611 18.8146C185.783 18.9148 186.084 18.9649 186.514 18.9649C186.944 18.9649 187.391 18.9231 187.856 18.8396C188.32 18.7395 188.707 18.6226 189.017 18.489L189.507 19.8915C189.025 20.2421 188.32 20.5593 187.391 20.8431C186.463 21.1269 185.56 21.2689 184.682 21.2689Z" fill="#2A2A2A"/>
</svg>
