<svg width="18" height="19" viewBox="0 0 18 19" fill="none" xmlns="http://www.w3.org/2000/svg">
<path fill-rule="evenodd" clip-rule="evenodd" d="M13.0968 14.6681C11.718 15.7179 9.98504 16.3411 8.11108 16.3411C3.65723 16.3411 0 12.8204 0 8.42057C0 4.02074 3.65723 0.5 8.11108 0.5C12.5649 0.5 16.2222 4.02074 16.2222 8.42057C16.2222 10.2526 15.5881 11.9322 14.5265 13.2687L17.6974 16.3546C18.0932 16.7398 18.1018 17.3729 17.7166 17.7687C17.3315 18.1645 16.6984 18.1731 16.3026 17.7879L13.0968 14.6681ZM2 8.42057C2 5.17616 4.71025 2.5 8.11108 2.5C11.5119 2.5 14.2222 5.17616 14.2222 8.42057C14.2222 10.0004 13.5796 11.4454 12.5275 12.5124C12.4888 12.542 12.4517 12.5748 12.4167 12.6108C12.3944 12.6336 12.3735 12.6573 12.3539 12.6816C11.2586 13.7069 9.76668 14.3411 8.11108 14.3411C4.71025 14.3411 2 11.665 2 8.42057Z" fill="#2A2A2A"/>
</svg>
